<?xml version="1.0" encoding="UTF-8" standalone="no"?>
<svg width="64px" height="64px" viewBox="0 0 64 64" version="1.1" xmlns="http://www.w3.org/2000/svg" xmlns:xlink="http://www.w3.org/1999/xlink" xmlns:sketch="http://www.bohemiancoding.com/sketch/ns">
    <!-- Generator: Sketch 3.3.3 (12072) - http://www.bohemiancoding.com/sketch -->
    <title>Imported Layers</title>
    <desc>Created with Sketch.</desc>
    <defs></defs>
    <g id="Page-3-(responsiv-)" stroke="none" stroke-width="1" fill="none" fill-rule="evenodd" sketch:type="MSPage">
        <g id="NETTGALLERI" sketch:type="MSArtboardGroup" transform="translate(-767.000000, -3362.000000)" fill="#DDDDDD">
            <path d="M768.099,3385.789 C768.08,3385.859 768.069,3385.931 768.05,3386 L789.021,3386 C790.126,3386 791.023,3385.102 791.023,3383.996 C791.023,3382.891 790.126,3381.996 789.021,3381.996 L773.731,3381.996 C778.226,3372.539 787.864,3366 799.031,3366 C813.136,3366 824.8,3376.433 826.741,3390 L830.773,3390 C828.803,3374.216 815.349,3362 799.031,3362 C786.969,3362 776.488,3368.688 771.036,3378.544 L771.036,3364.012 C771.036,3362.906 770.14,3362.008 769.034,3362.008 C767.929,3362.008 767.033,3362.906 767.033,3364.012 L767.033,3383.677 C767.016,3383.781 767,3383.887 767,3383.996 C767,3384.276 767.074,3384.532 767.179,3384.773 C767.192,3384.805 767.206,3384.834 767.221,3384.866 C767.263,3384.949 767.301,3385.033 767.354,3385.111 C767.539,3385.398 767.797,3385.628 768.099,3385.789 L768.099,3385.789 Z M830.886,3403.237 C830.87,3403.196 830.851,3403.158 830.832,3403.117 C830.793,3403.042 830.759,3402.965 830.711,3402.895 C830.526,3402.606 830.267,3402.372 829.961,3402.21 C829.98,3402.141 829.991,3402.07 830.01,3402 L825.863,3402 L825.863,3402.002 L809.04,3402.002 C807.935,3402.002 807.038,3402.899 807.038,3404.004 C807.038,3405.112 807.935,3406.004 809.04,3406.004 L824.33,3406.004 C819.836,3415.461 810.198,3422 799.031,3422 C784.925,3422 773.261,3411.569 771.32,3398 L767.288,3398 C769.258,3413.784 782.713,3426 799.031,3426 C811.093,3426 821.574,3419.312 827.026,3409.453 L827.026,3423.993 C827.026,3425.096 827.922,3425.992 829.028,3425.992 C830.133,3425.992 831.03,3425.096 831.03,3423.993 L831.03,3404.315 C831.045,3404.213 831.061,3404.111 831.061,3404.004 C831.061,3403.729 830.988,3403.475 830.886,3403.237 L830.886,3403.237 Z" id="Imported-Layers" sketch:type="MSShapeGroup"></path>
        </g>
    </g>
</svg>